<mxfile host="app.diagrams.net" modified="2021-03-11T05:03:35.120Z" agent="5.0 (Windows NT 10.0; Win64; x64) AppleWebKit/537.36 (KHTML, like Gecko) Chrome/89.0.4389.72 Safari/537.36 Edg/89.0.774.45" etag="d2pjfGcWEGckIAeo9x8c" version="14.4.7" type="github">
  <diagram name="Page-1" id="74e2e168-ea6b-b213-b513-2b3c1d86103e">
    <mxGraphModel dx="1422" dy="762" grid="1" gridSize="10" guides="1" tooltips="1" connect="1" arrows="1" fold="1" page="1" pageScale="1" pageWidth="1100" pageHeight="850" math="0" shadow="0">
      <root>
        <mxCell id="0" />
        <mxCell id="1" parent="0" />
        <mxCell id="FQUA202XEOmudpFLJ6TM-3" value="" style="edgeStyle=orthogonalEdgeStyle;curved=0;rounded=1;sketch=1;orthogonalLoop=1;jettySize=auto;html=1;shadow=0;fontFamily=Comic Sans MS;fontSize=12;" edge="1" parent="1" source="FQUA202XEOmudpFLJ6TM-1" target="FQUA202XEOmudpFLJ6TM-2">
          <mxGeometry relative="1" as="geometry" />
        </mxCell>
        <mxCell id="FQUA202XEOmudpFLJ6TM-1" value="接收dowrite Mq" style="strokeWidth=2;html=1;shape=mxgraph.flowchart.start_1;whiteSpace=wrap;fontFamily=Comic Sans MS;fontSize=12;fontColor=#000000;align=center;strokeColor=#000000;fillColor=#ffffff;sketch=1;shadow=0;" vertex="1" parent="1">
          <mxGeometry x="160" y="170" width="100" height="60" as="geometry" />
        </mxCell>
        <mxCell id="FQUA202XEOmudpFLJ6TM-5" value="" style="edgeStyle=orthogonalEdgeStyle;curved=0;rounded=1;sketch=1;orthogonalLoop=1;jettySize=auto;html=1;shadow=0;fontFamily=Comic Sans MS;fontSize=12;" edge="1" parent="1" source="FQUA202XEOmudpFLJ6TM-2" target="FQUA202XEOmudpFLJ6TM-4">
          <mxGeometry relative="1" as="geometry" />
        </mxCell>
        <mxCell id="FQUA202XEOmudpFLJ6TM-2" value="计算QPS" style="whiteSpace=wrap;html=1;rounded=1;strokeWidth=2;sketch=1;shadow=0;fontFamily=Comic Sans MS;fontSize=12;" vertex="1" parent="1">
          <mxGeometry x="310" y="170" width="120" height="60" as="geometry" />
        </mxCell>
        <mxCell id="FQUA202XEOmudpFLJ6TM-7" value="" style="edgeStyle=orthogonalEdgeStyle;curved=0;rounded=1;sketch=1;orthogonalLoop=1;jettySize=auto;html=1;shadow=0;fontFamily=Comic Sans MS;fontSize=12;" edge="1" parent="1" source="FQUA202XEOmudpFLJ6TM-4" target="FQUA202XEOmudpFLJ6TM-6">
          <mxGeometry relative="1" as="geometry" />
        </mxCell>
        <mxCell id="FQUA202XEOmudpFLJ6TM-11" value="" style="edgeStyle=orthogonalEdgeStyle;curved=0;rounded=1;sketch=1;orthogonalLoop=1;jettySize=auto;html=1;shadow=0;fontFamily=Comic Sans MS;fontSize=12;" edge="1" parent="1" source="FQUA202XEOmudpFLJ6TM-4" target="FQUA202XEOmudpFLJ6TM-10">
          <mxGeometry relative="1" as="geometry" />
        </mxCell>
        <mxCell id="FQUA202XEOmudpFLJ6TM-4" value="QPS大于阈值" style="rhombus;whiteSpace=wrap;html=1;rounded=1;strokeWidth=2;sketch=1;shadow=0;fontFamily=Comic Sans MS;fontSize=12;" vertex="1" parent="1">
          <mxGeometry x="470" y="160" width="110" height="80" as="geometry" />
        </mxCell>
        <mxCell id="FQUA202XEOmudpFLJ6TM-9" value="" style="edgeStyle=orthogonalEdgeStyle;curved=0;rounded=1;sketch=1;orthogonalLoop=1;jettySize=auto;html=1;shadow=0;fontFamily=Comic Sans MS;fontSize=12;" edge="1" parent="1" source="FQUA202XEOmudpFLJ6TM-6" target="FQUA202XEOmudpFLJ6TM-8">
          <mxGeometry relative="1" as="geometry" />
        </mxCell>
        <mxCell id="FQUA202XEOmudpFLJ6TM-6" value="进入慢队列" style="whiteSpace=wrap;html=1;rounded=1;strokeWidth=2;sketch=1;shadow=0;fontFamily=Comic Sans MS;fontSize=12;" vertex="1" parent="1">
          <mxGeometry x="630" y="170" width="120" height="60" as="geometry" />
        </mxCell>
        <mxCell id="FQUA202XEOmudpFLJ6TM-12" style="edgeStyle=orthogonalEdgeStyle;curved=0;rounded=1;sketch=1;orthogonalLoop=1;jettySize=auto;html=1;exitX=0.5;exitY=1;exitDx=0;exitDy=0;entryX=1;entryY=0.5;entryDx=0;entryDy=0;shadow=0;fontFamily=Comic Sans MS;fontSize=12;" edge="1" parent="1" source="FQUA202XEOmudpFLJ6TM-8" target="FQUA202XEOmudpFLJ6TM-10">
          <mxGeometry relative="1" as="geometry" />
        </mxCell>
        <mxCell id="FQUA202XEOmudpFLJ6TM-8" value="慢队列处理逻辑" style="whiteSpace=wrap;html=1;rounded=1;strokeWidth=2;sketch=1;shadow=0;fontFamily=Comic Sans MS;fontSize=12;" vertex="1" parent="1">
          <mxGeometry x="810" y="170" width="120" height="60" as="geometry" />
        </mxCell>
        <mxCell id="FQUA202XEOmudpFLJ6TM-16" value="" style="edgeStyle=orthogonalEdgeStyle;curved=0;rounded=1;sketch=1;orthogonalLoop=1;jettySize=auto;html=1;shadow=0;fontFamily=Comic Sans MS;fontSize=12;" edge="1" parent="1" source="FQUA202XEOmudpFLJ6TM-10" target="FQUA202XEOmudpFLJ6TM-15">
          <mxGeometry relative="1" as="geometry" />
        </mxCell>
        <mxCell id="FQUA202XEOmudpFLJ6TM-10" value="处理事件" style="whiteSpace=wrap;html=1;rounded=1;strokeWidth=2;sketch=1;shadow=0;fontFamily=Comic Sans MS;fontSize=12;" vertex="1" parent="1">
          <mxGeometry x="465" y="330" width="120" height="60" as="geometry" />
        </mxCell>
        <mxCell id="FQUA202XEOmudpFLJ6TM-15" value="结束" style="strokeWidth=2;html=1;shape=mxgraph.flowchart.terminator;whiteSpace=wrap;rounded=0;sketch=1;shadow=0;fontFamily=Comic Sans MS;fontSize=12;" vertex="1" parent="1">
          <mxGeometry x="310" y="330" width="100" height="60" as="geometry" />
        </mxCell>
      </root>
    </mxGraphModel>
  </diagram>
</mxfile>
